<?xml version="1.0" encoding="UTF-8"?>
<svg viewBox="0 0 745 199" version="1.1" xmlns="http://www.w3.org/2000/svg" xmlns:xlink="http://www.w3.org/1999/xlink">
    <g id="Page-1" stroke="none" stroke-width="1" fill="none" fill-rule="evenodd">
        <g id="Artboard" fill-rule="nonzero">
            <g id="logo">
                <g id="Knipster-Logo-black-Copy-10" transform="translate(237.000000, 60.000000)" fill="#00355C">
                    <polygon id="Shape" points="11.905303 53.5645756 11.905303 77.9741697 0 77.9741697 0 1 11.905303 1 11.905303 28.3542435 26.5151515 1 39.2159091 1 22.8825758 32.4095941 42 78 28 78 15.4848485 46.7195572"></polygon>
                    <polygon id="Shape" points="87.6303928 1 103.857051 52.6778523 103.857051 1 116 1 116 78 102.856407 78 86.1429491 28.6993289 86.1429491 78 74 78 74 1"></polygon>
                    <polygon id="Shape" points="161 78 149 78 149 1 161 1 161 58.6482328"></polygon>
                    <path d="M213.048858,1.01891998 C218.32036,0.784764705 223.443453,2.73292423 227.12026,6.36985469 C230.405414,9.92058561 232.148341,14.5464653 231.990095,19.2948178 L231.990095,30.4878358 C232.040626,35.3395181 230.040671,40.0033916 226.447631,43.4127988 C222.951509,46.9480412 218.069751,48.9085833 212.995048,48.8154334 L206.08042,48.8154334 L206.08042,78 L194,78 L194,1.01891998 L213.048858,1.01891998 Z M220.286348,19.4757672 C220.372835,17.6771265 219.692762,15.9222814 218.402986,14.6159811 C217.055773,13.3770202 215.233649,12.7310552 213.37172,12.8323362 L206.08042,12.8323362 L206.08042,37.6224154 L213.37172,37.6224154 C215.21772,37.6523944 216.992851,36.9402038 218.26846,35.657821 C219.583917,34.4110418 220.31275,32.7024368 220.286348,30.9272845 L220.286348,19.4757672 Z" id="Shape"></path>
                    <path d="M302.979515,58.9133542 C303.198131,63.8375649 301.661634,68.6860606 298.62398,72.6574698 C296.558838,75.3132962 293.638115,77.238809 290.316199,78.1344482 C288.132603,78.7396962 285.866938,79.0270707 283.594693,78.9869967 C279.39644,79.1393692 275.264203,77.9490765 271.845501,75.6026374 C269.154009,73.6476392 267.033293,71.0581226 265.688602,68.0847095 C264.096762,64.6422029 263.185061,60.9452547 263,57.1824223 L274.507218,56.3815434 C274.697197,59.9234329 276.052887,63.3158366 278.378805,66.0695948 C279.596378,67.4955779 281.434084,68.2973705 283.352719,68.2397183 C285.928529,68.1274355 288.263786,66.7517956 289.536504,64.597011 C290.452393,63.0237551 290.872728,61.2286417 290.746375,59.4300502 C290.557359,55.8106885 288.931137,52.3987748 286.202637,49.8970076 L275.448228,40.1314518 C272.117166,37.2111419 269.254163,33.8332555 266.952245,30.1075479 C265.157359,26.761612 264.234733,23.0469558 264.263643,19.2827651 C263.854584,13.1438209 266.595662,7.200652 271.603527,3.36852594 C274.897786,1.06008956 278.901445,-0.122240316 282.976315,0.0100014407 C286.857899,-0.0934399741 290.690147,0.865241308 294.02647,2.77432545 C296.463652,4.26553472 298.45561,6.33985649 299.806965,8.79383474 C301.341593,11.5516254 302.257492,14.5879327 302.495567,17.7068421 L290.934577,19.7219568 C290.81623,17.066101 289.880552,14.5036839 288.245975,12.3590377 C287.05684,11.0026044 285.276909,10.2573176 283.433377,10.343923 C281.326763,10.2766653 279.364699,11.3697668 278.378805,13.1599166 C277.387017,14.8889744 276.903718,16.8448241 276.980732,18.8177386 C277.105053,22.8963691 278.756588,26.7949755 281.632013,29.7975302 C283.261012,31.5914492 285.061274,33.2348291 287.009218,34.706143 C289.823288,36.9623825 291.678424,38.5383055 292.574625,39.4339121 C295.26108,41.933406 297.57705,44.7760294 299.457446,47.8818929 C300.156121,49.0479311 300.775786,50.2560639 301.312582,51.4987655 C302.33079,53.8529427 302.895599,56.3652353 302.979515,58.9133542 L302.979515,58.9133542 Z" id="Shape"></path>
                    <polygon id="Shape" points="344.974286 12.8163197 332 12.8163197 332 1 370 1 370 12.8163197 357.107143 12.8163197 357.107143 78 344.92 78"></polygon>
                    <polygon id="Shape" points="402 77.9741697 402 1 437 1 437 12.6752768 414.286943 12.6752768 414.286943 33.6752768 430.870211 33.6752768 430.870211 45.3247232 414.286943 45.3247232 414.286943 66.3247232 437 66.3247232 437 78"></polygon>
                    <path d="M486.204258,1 C493.042138,1 498.061433,2.78408328 501.262142,6.35224983 C504.249818,10.0461351 505.740401,14.633323 505.463074,19.2803895 L505.463074,30.4761585 C505.521598,35.7731209 503.128995,40.8285065 498.916168,44.309268 L508,77.9224312 L494.85163,77.9224312 L487.431803,49.0151108 L479.24817,49.0151108 L479.24817,78 L467,78 L467,1 L486.204258,1 Z M493.542249,19.4613835 C493.798926,17.658587 493.16314,15.8444397 491.819443,14.5455411 C490.475745,13.2466425 488.574651,12.6084889 486.667997,12.8163197 L479.275449,12.8163197 L479.275449,37.5090665 L486.667997,37.5090665 C488.540273,37.5422349 490.341348,36.829357 491.632735,35.5439893 C492.969158,34.2986212 493.708607,32.5884515 493.678643,30.8122901 L493.542249,19.4613835 Z" id="Shape"></path>
                </g>
                <g id="Page-1" fill="#11365C">
                    <path d="M30.063,71.1562 L30.063,127.3412 L16.085,127.3412 C12.961,118.1362 11.377,108.6862 11.377,99.2502 C11.377,89.8142 12.962,80.3632 16.088,71.1562 L30.063,71.1562 Z M104.83,130.2612 C119.816,127.5292 130.672,114.5202 130.672,99.2502 C130.672,83.9842 119.816,70.9712 104.83,68.2282 L104.83,11.6792 C120.107,12.6662 134.883,17.6362 147.579,26.0632 C160.23,34.4602 170.548,46.1102 177.439,59.7732 L154.671,59.7732 L154.671,138.7262 L177.439,138.7262 C170.548,152.3872 160.23,164.0362 147.579,172.4312 C134.884,180.8572 120.107,185.8272 104.83,186.8132 L104.83,130.2612 Z M41.437,138.7262 L41.437,59.7732 L20.851,59.7732 C27.743,46.1112 38.062,34.4612 50.713,26.0632 C63.409,17.6362 78.183,12.6662 93.457,11.6792 L93.457,68.2282 C78.465,70.9712 67.605,83.9842 67.605,99.2502 C67.605,114.5192 78.465,127.5282 93.457,130.2612 L93.457,186.8132 C78.183,185.8272 63.409,180.8572 50.713,172.4312 C38.062,164.0362 27.743,152.3872 20.851,138.7262 L41.437,138.7262 Z M119.305,99.2502 C119.305,110.3772 110.262,119.4292 99.146,119.4292 C88.029,119.4292 78.985,110.3772 78.985,99.2502 C78.985,88.1242 88.029,79.0732 99.146,79.0732 C110.262,79.0732 119.305,88.1242 119.305,99.2502 L119.305,99.2502 Z M186.913,99.2502 C186.913,108.6952 185.331,118.1452 182.21,127.3412 L166.045,127.3412 L166.045,71.1562 L182.208,71.1562 C185.33,80.3542 186.913,89.8052 186.913,99.2502 L186.913,99.2502 Z M99.146,0.0002 C44.477,0.0002 0,44.5232 0,99.2502 C0,153.9762 44.477,198.5002 99.146,198.5002 C153.813,198.5002 198.286,153.9762 198.286,99.2502 C198.286,44.5232 153.813,0.0002 99.146,0.0002 L99.146,0.0002 Z" id="Fill-1"></path>
                </g>
            </g>
        </g>
    </g>
</svg>